<svg xmlns="http://www.w3.org/2000/svg" xmlns:xlink="http://www.w3.org/1999/xlink" width="264" zoomAndPan="magnify" viewBox="0 0 198 198.749996" height="264" preserveAspectRatio="xMidYMid meet" version="1.0"><defs><g/><clipPath id="2105990ee9"><path d="M 72.554688 19.742188 L 124.792969 19.742188 L 124.792969 71.980469 L 72.554688 71.980469 Z M 72.554688 19.742188 " clip-rule="nonzero"/></clipPath><clipPath id="87c9b41d01"><path d="M 72.882812 125.445312 L 125.117188 125.445312 L 125.117188 177.683594 L 72.882812 177.683594 Z M 72.882812 125.445312 " clip-rule="nonzero"/></clipPath><clipPath id="7ba2e22174"><path d="M 125.570312 72.429688 L 177.808594 72.429688 L 177.808594 124.667969 L 125.570312 124.667969 Z M 125.570312 72.429688 " clip-rule="nonzero"/></clipPath><clipPath id="e92c7916b0"><path d="M 19.867188 72.882812 L 72.101562 72.882812 L 72.101562 125.117188 L 19.867188 125.117188 Z M 19.867188 72.882812 " clip-rule="nonzero"/></clipPath><clipPath id="ed626b1d3c"><path d="M 128 37 L 152 37 L 152 62 L 128 62 Z M 128 37 " clip-rule="nonzero"/></clipPath><clipPath id="98fabd7d83"><path d="M 125.246094 57.996094 L 148.464844 34.777344 L 163.238281 49.550781 L 140.023438 72.769531 Z M 125.246094 57.996094 " clip-rule="nonzero"/></clipPath><clipPath id="ec3f215655"><path d="M 125.246094 57.996094 L 148.464844 34.777344 L 163.238281 49.550781 L 140.023438 72.769531 Z M 125.246094 57.996094 " clip-rule="nonzero"/></clipPath><clipPath id="0eefea5fd1"><path d="M 125.246094 57.996094 L 148.464844 34.777344 L 163.238281 49.550781 L 140.023438 72.769531 Z M 125.246094 57.996094 " clip-rule="nonzero"/></clipPath><clipPath id="0cc9d6785c"><path d="M 136 127 L 161 127 L 161 152 L 136 152 Z M 136 127 " clip-rule="nonzero"/></clipPath><clipPath id="3a1f691bcb"><path d="M 139.800781 125.121094 L 163.015625 148.335938 L 148.242188 163.113281 L 125.023438 139.894531 Z M 139.800781 125.121094 " clip-rule="nonzero"/></clipPath><clipPath id="946cc92831"><path d="M 139.800781 125.121094 L 163.015625 148.335938 L 148.242188 163.113281 L 125.023438 139.894531 Z M 139.800781 125.121094 " clip-rule="nonzero"/></clipPath><clipPath id="6cec889ebc"><path d="M 139.800781 125.121094 L 163.015625 148.335938 L 148.242188 163.113281 L 125.023438 139.894531 Z M 139.800781 125.121094 " clip-rule="nonzero"/></clipPath><clipPath id="c66199e7df"><path d="M 38 136 L 63 136 L 63 161 L 38 161 Z M 38 136 " clip-rule="nonzero"/></clipPath><clipPath id="7eddc55e95"><path d="M 65.09375 139.671875 L 41.875 162.890625 L 27.101562 148.117188 L 50.320312 124.898438 Z M 65.09375 139.671875 " clip-rule="nonzero"/></clipPath><clipPath id="f6812756e3"><path d="M 65.09375 139.671875 L 41.875 162.890625 L 27.101562 148.117188 L 50.320312 124.898438 Z M 65.09375 139.671875 " clip-rule="nonzero"/></clipPath><clipPath id="20befbeece"><path d="M 65.09375 139.671875 L 41.875 162.890625 L 27.101562 148.117188 L 50.320312 124.898438 Z M 65.09375 139.671875 " clip-rule="nonzero"/></clipPath></defs><g clip-path="url(#2105990ee9)"><path fill="#000000" d="M 98.675781 19.742188 C 84.25 19.742188 72.554688 31.4375 72.554688 45.859375 C 72.554688 60.285156 84.25 71.980469 98.675781 71.980469 C 113.097656 71.980469 124.792969 60.285156 124.792969 45.859375 C 124.792969 31.4375 113.097656 19.742188 98.675781 19.742188 " fill-opacity="1" fill-rule="nonzero"/></g><g fill="#ffffff" fill-opacity="1"><g transform="translate(84.383868, 60.698627)"><g><path d="M 14.453125 0.421875 C 12.296875 0.421875 10.359375 -0.09375 8.640625 -1.125 C 6.929688 -2.164062 5.566406 -3.816406 4.546875 -6.078125 C 3.523438 -8.335938 3.015625 -11.210938 3.015625 -14.703125 C 3.015625 -18.179688 3.523438 -21.050781 4.546875 -23.3125 C 5.566406 -25.570312 6.929688 -27.21875 8.640625 -28.25 C 10.359375 -29.289062 12.296875 -29.8125 14.453125 -29.8125 C 16.609375 -29.8125 18.546875 -29.289062 20.265625 -28.25 C 21.984375 -27.21875 23.347656 -25.570312 24.359375 -23.3125 C 25.367188 -21.050781 25.875 -18.179688 25.875 -14.703125 C 25.875 -11.210938 25.367188 -8.335938 24.359375 -6.078125 C 23.347656 -3.816406 21.984375 -2.164062 20.265625 -1.125 C 18.546875 -0.09375 16.609375 0.421875 14.453125 0.421875 Z M 14.453125 -2.78125 C 17.015625 -2.78125 18.953125 -3.695312 20.265625 -5.53125 C 21.585938 -7.375 22.25 -10.429688 22.25 -14.703125 C 22.25 -18.960938 21.585938 -22.007812 20.265625 -23.84375 C 18.953125 -25.6875 17.015625 -26.609375 14.453125 -26.609375 C 12.765625 -26.609375 11.34375 -26.21875 10.1875 -25.4375 C 9.039062 -24.664062 8.160156 -23.398438 7.546875 -21.640625 C 6.941406 -19.890625 6.640625 -17.578125 6.640625 -14.703125 C 6.640625 -11.816406 6.941406 -9.492188 7.546875 -7.734375 C 8.160156 -5.984375 9.039062 -4.71875 10.1875 -3.9375 C 11.34375 -3.164062 12.765625 -2.78125 14.453125 -2.78125 Z M 14.453125 -2.78125 "/></g></g></g><g clip-path="url(#87c9b41d01)"><path fill="#000000" d="M 99 177.683594 C 113.425781 177.683594 125.117188 165.988281 125.117188 151.566406 C 125.117188 137.140625 113.425781 125.445312 99 125.445312 C 84.574219 125.445312 72.882812 137.140625 72.882812 151.566406 C 72.882812 165.988281 84.574219 177.683594 99 177.683594 " fill-opacity="1" fill-rule="nonzero"/></g><g fill="#ffffff" fill-opacity="1"><g transform="translate(110.153355, 136.727186)"><g><path d="M -1.765625 1.34375 C -1.765625 2.96875 -1.941406 4.273438 -2.296875 5.265625 C -2.648438 6.253906 -3.253906 7.175781 -4.109375 8.03125 C -4.972656 8.894531 -6.34375 10.007812 -8.21875 11.375 L -11.453125 13.734375 C -12.648438 14.597656 -13.625 15.398438 -14.375 16.140625 C -15.125 16.878906 -15.71875 17.679688 -16.15625 18.546875 C -16.59375 19.410156 -16.8125 20.378906 -16.8125 21.453125 C -16.8125 23.191406 -16.347656 24.503906 -15.421875 25.390625 C -14.492188 26.273438 -13.046875 26.71875 -11.078125 26.71875 C -9.523438 26.71875 -8.144531 26.351562 -6.9375 25.625 C -5.726562 24.90625 -4.765625 23.882812 -4.046875 22.5625 L -3.578125 22.46875 L -1.5 24.640625 C -2.5 26.253906 -3.804688 27.519531 -5.421875 28.4375 C -7.035156 29.351562 -8.921875 29.8125 -11.078125 29.8125 C -13.171875 29.8125 -14.90625 29.457031 -16.28125 28.75 C -17.664062 28.039062 -18.6875 27.054688 -19.34375 25.796875 C -20 24.546875 -20.328125 23.097656 -20.328125 21.453125 C -20.328125 20.140625 -20.050781 18.910156 -19.5 17.765625 C -18.945312 16.628906 -18.164062 15.554688 -17.15625 14.546875 C -16.15625 13.546875 -14.898438 12.488281 -13.390625 11.375 L -10.109375 8.984375 C -8.890625 8.085938 -7.953125 7.320312 -7.296875 6.6875 C -6.640625 6.0625 -6.160156 5.445312 -5.859375 4.84375 C -5.554688 4.25 -5.40625 3.585938 -5.40625 2.859375 L -20.328125 2.859375 L -20.328125 0 L -1.765625 0 Z M -1.765625 1.34375 "/></g></g></g><g clip-path="url(#7ba2e22174)"><path fill="#000000" d="M 177.808594 98.550781 C 177.808594 84.125 166.113281 72.429688 151.6875 72.429688 C 137.265625 72.429688 125.570312 84.125 125.570312 98.550781 C 125.570312 112.972656 137.265625 124.667969 151.6875 124.667969 C 166.113281 124.667969 177.808594 112.972656 177.808594 98.550781 " fill-opacity="1" fill-rule="nonzero"/></g><g fill="#ffffff" fill-opacity="1"><g transform="translate(136.851649, 87.75892)"><g><path d="M 0 2.09375 L 2.859375 2.09375 L 2.859375 10.109375 L 25.328125 10.109375 L 25.453125 9.65625 C 24.804688 8.351562 24.3125 7.210938 23.96875 6.234375 C 23.625 5.253906 23.296875 4 22.984375 2.46875 L 26.15625 2.46875 C 26.476562 3.988281 26.910156 5.488281 27.453125 6.96875 C 28.003906 8.445312 28.648438 9.789062 29.390625 11 L 29.390625 13.484375 L 2.859375 13.484375 L 2.859375 20.671875 L 0 20.671875 Z M 0 2.09375 "/></g></g></g><g clip-path="url(#e92c7916b0)"><path fill="#000000" d="M 19.867188 99 C 19.867188 113.425781 31.5625 125.117188 45.984375 125.117188 C 60.410156 125.117188 72.101562 113.425781 72.101562 99 C 72.101562 84.574219 60.410156 72.882812 45.984375 72.882812 C 31.5625 72.882812 19.867188 84.574219 19.867188 99 " fill-opacity="1" fill-rule="nonzero"/></g><g fill="#ffffff" fill-opacity="1"><g transform="translate(60.822964, 110.780385)"><g><path d="M 0.421875 -11.640625 C 0.421875 -8.785156 -0.21875 -6.519531 -1.5 -4.84375 C -2.789062 -3.164062 -4.578125 -2.082031 -6.859375 -1.59375 L -8.015625 -4.15625 L -7.9375 -4.625 C -6.1875 -5.132812 -4.875 -5.921875 -4 -6.984375 C -3.125 -8.046875 -2.6875 -9.597656 -2.6875 -11.640625 C -2.6875 -13.710938 -3.160156 -15.289062 -4.109375 -16.375 C -5.066406 -17.46875 -6.472656 -18.015625 -8.328125 -18.015625 C -10.128906 -18.015625 -11.503906 -17.460938 -12.453125 -16.359375 C -13.410156 -15.253906 -13.890625 -13.515625 -13.890625 -11.140625 L -13.890625 -7.9375 L -16.75 -7.9375 L -16.75 -10.796875 C -16.75 -12.640625 -17.207031 -14.109375 -18.125 -15.203125 C -19.039062 -16.296875 -20.335938 -16.84375 -22.015625 -16.84375 C -23.609375 -16.84375 -24.800781 -16.367188 -25.59375 -15.421875 C -26.394531 -14.484375 -26.796875 -13.160156 -26.796875 -11.453125 C -26.796875 -8.492188 -25.617188 -6.382812 -23.265625 -5.125 L -23.171875 -4.65625 L -25.296875 -2.734375 C -26.648438 -3.523438 -27.738281 -4.664062 -28.5625 -6.15625 C -29.394531 -7.644531 -29.8125 -9.410156 -29.8125 -11.453125 C -29.8125 -13.335938 -29.519531 -14.9375 -28.9375 -16.25 C -28.351562 -17.570312 -27.507812 -18.570312 -26.40625 -19.25 C -25.3125 -19.9375 -24 -20.28125 -22.46875 -20.28125 C -21.019531 -20.28125 -19.75 -19.859375 -18.65625 -19.015625 C -17.570312 -18.179688 -16.710938 -17.078125 -16.078125 -15.703125 L -15.65625 -15.703125 C -15.1875 -17.640625 -14.3125 -19.097656 -13.03125 -20.078125 C -11.757812 -21.054688 -10.191406 -21.546875 -8.328125 -21.546875 C -5.535156 -21.546875 -3.378906 -20.710938 -1.859375 -19.046875 C -0.335938 -17.390625 0.421875 -14.921875 0.421875 -11.640625 Z M 0.421875 -11.640625 "/></g></g></g><g clip-path="url(#ed626b1d3c)"><g clip-path="url(#98fabd7d83)"><g clip-path="url(#ec3f215655)"><g clip-path="url(#0eefea5fd1)"><path fill="#000000" d="M 145.777344 37.566406 L 145.960938 55.492188 L 128.035156 55.308594 L 128.09375 60.839844 L 151.550781 61.082031 L 151.308594 37.621094 Z M 145.777344 37.566406 " fill-opacity="1" fill-rule="nonzero"/></g></g></g></g><g clip-path="url(#0cc9d6785c)"><g clip-path="url(#3a1f691bcb)"><g clip-path="url(#946cc92831)"><g clip-path="url(#6cec889ebc)"><path fill="#000000" d="M 160.226562 145.652344 L 142.300781 145.835938 L 142.484375 127.910156 L 136.953125 127.964844 L 136.714844 151.421875 L 160.171875 151.183594 Z M 160.226562 145.652344 " fill-opacity="1" fill-rule="nonzero"/></g></g></g></g><g clip-path="url(#c66199e7df)"><g clip-path="url(#7eddc55e95)"><g clip-path="url(#f6812756e3)"><g clip-path="url(#20befbeece)"><path fill="#000000" d="M 44.5625 160.101562 L 44.378906 142.175781 L 62.304688 142.359375 L 62.25 136.828125 L 38.792969 136.585938 L 39.03125 160.042969 Z M 44.5625 160.101562 " fill-opacity="1" fill-rule="nonzero"/></g></g></g></g></svg>