<svg xmlns="http://www.w3.org/2000/svg" xmlns:xlink="http://www.w3.org/1999/xlink" width="264" zoomAndPan="magnify" viewBox="0 0 198 198.749996" height="264" preserveAspectRatio="xMidYMid meet" version="1.0"><defs><g/><clipPath id="f66f5a548c"><path d="M 56.589844 0 L 140.914062 0 L 140.914062 197.75 L 56.589844 197.75 Z M 56.589844 0 " clip-rule="nonzero"/></clipPath><clipPath id="625060d6ea"><path d="M 152.414062 19.742188 L 177.785156 19.742188 L 177.785156 45.113281 L 152.414062 45.113281 Z M 152.414062 19.742188 " clip-rule="nonzero"/></clipPath><clipPath id="5b2aa98381"><path d="M 0.125 56.46875 L 197.546875 56.46875 L 197.546875 140.792969 L 0.125 140.792969 Z M 0.125 56.46875 " clip-rule="nonzero"/></clipPath><clipPath id="6bb7e01048"><path d="M 85.703125 128.425781 L 111.820312 128.425781 L 111.820312 177.679688 L 85.703125 177.679688 Z M 85.703125 128.425781 " clip-rule="nonzero"/></clipPath><clipPath id="bb828416d3"><path d="M 85.703125 20.066406 L 111.820312 20.066406 L 111.820312 69.316406 L 85.703125 69.316406 Z M 85.703125 20.066406 " clip-rule="nonzero"/></clipPath><clipPath id="d3df17c0ce"><path d="M 128.226562 85.574219 L 177.476562 85.574219 L 177.476562 111.691406 L 128.226562 111.691406 Z M 128.226562 85.574219 " clip-rule="nonzero"/></clipPath><clipPath id="c446ac007d"><path d="M 20.195312 85.726562 L 69.445312 85.726562 L 69.445312 111.84375 L 20.195312 111.84375 Z M 20.195312 85.726562 " clip-rule="nonzero"/></clipPath></defs><g clip-path="url(#f66f5a548c)"><path fill="#000000" d="M 56.589844 0.0078125 L 140.914062 0.0078125 L 140.914062 197.742188 L 56.589844 197.742188 L 56.589844 0.0078125 " fill-opacity="1" fill-rule="nonzero"/></g><g clip-path="url(#625060d6ea)"><path fill="#000000" d="M 165.101562 19.742188 C 158.09375 19.742188 152.414062 25.421875 152.414062 32.429688 C 152.414062 39.433594 158.09375 45.113281 165.101562 45.113281 C 172.105469 45.113281 177.785156 39.433594 177.785156 32.429688 C 177.785156 25.421875 172.105469 19.742188 165.101562 19.742188 " fill-opacity="1" fill-rule="nonzero"/></g><g fill="#ffffff" fill-opacity="1"><g transform="translate(158.128229, 39.529856)"><g><path d="M 6.984375 0.203125 C 5.941406 0.203125 5.003906 -0.046875 4.171875 -0.546875 C 3.347656 -1.046875 2.6875 -1.84375 2.1875 -2.9375 C 1.695312 -4.03125 1.453125 -5.414062 1.453125 -7.09375 C 1.453125 -8.78125 1.695312 -10.164062 2.1875 -11.25 C 2.6875 -12.34375 3.347656 -13.140625 4.171875 -13.640625 C 5.003906 -14.148438 5.941406 -14.40625 6.984375 -14.40625 C 8.023438 -14.40625 8.957031 -14.148438 9.78125 -13.640625 C 10.613281 -13.140625 11.273438 -12.34375 11.765625 -11.25 C 12.253906 -10.164062 12.5 -8.78125 12.5 -7.09375 C 12.5 -5.414062 12.253906 -4.03125 11.765625 -2.9375 C 11.273438 -1.84375 10.613281 -1.046875 9.78125 -0.546875 C 8.957031 -0.046875 8.023438 0.203125 6.984375 0.203125 Z M 6.984375 -1.34375 C 8.222656 -1.34375 9.160156 -1.785156 9.796875 -2.671875 C 10.429688 -3.566406 10.75 -5.039062 10.75 -7.09375 C 10.75 -9.15625 10.429688 -10.628906 9.796875 -11.515625 C 9.160156 -12.410156 8.222656 -12.859375 6.984375 -12.859375 C 6.171875 -12.859375 5.484375 -12.671875 4.921875 -12.296875 C 4.367188 -11.921875 3.941406 -11.304688 3.640625 -10.453125 C 3.347656 -9.609375 3.203125 -8.488281 3.203125 -7.09375 C 3.203125 -5.707031 3.347656 -4.585938 3.640625 -3.734375 C 3.941406 -2.890625 4.367188 -2.28125 4.921875 -1.90625 C 5.484375 -1.53125 6.171875 -1.34375 6.984375 -1.34375 Z M 6.984375 -1.34375 "/></g></g></g><g clip-path="url(#5b2aa98381)"><path fill="#000000" d="M 197.539062 56.46875 L 197.539062 140.792969 L -0.195312 140.792969 L -0.195312 56.46875 L 197.539062 56.46875 " fill-opacity="1" fill-rule="nonzero"/></g><g clip-path="url(#6bb7e01048)"><path fill="#ffffff" d="M 85.703125 177.527344 L 92.25 177.527344 L 98.773438 169.105469 L 105.269531 177.527344 L 111.820312 177.527344 L 98.746094 160.65625 Z M 85.703125 161.488281 L 92.25 161.488281 L 98.773438 153.066406 L 105.269531 161.488281 L 111.820312 161.488281 L 98.746094 144.617188 Z M 85.703125 145.449219 L 92.25 145.449219 L 98.773438 137.027344 L 105.269531 145.449219 L 111.820312 145.449219 L 98.746094 128.578125 Z M 85.703125 145.449219 " fill-opacity="1" fill-rule="nonzero"/></g><g clip-path="url(#bb828416d3)"><path fill="#ffffff" d="M 85.703125 69.167969 L 92.25 69.167969 L 98.773438 60.746094 L 105.269531 69.167969 L 111.820312 69.167969 L 98.746094 52.296875 Z M 85.703125 53.128906 L 92.25 53.128906 L 98.773438 44.707031 L 105.269531 53.128906 L 111.820312 53.128906 L 98.746094 36.257812 Z M 85.703125 37.089844 L 92.25 37.089844 L 98.773438 28.667969 L 105.269531 37.089844 L 111.820312 37.089844 L 98.746094 20.21875 Z M 85.703125 37.089844 " fill-opacity="1" fill-rule="nonzero"/></g><g clip-path="url(#d3df17c0ce)"><path fill="#ffffff" d="M 128.378906 85.574219 L 128.378906 92.125 L 136.800781 98.648438 L 128.378906 105.144531 L 128.378906 111.691406 L 145.25 98.621094 Z M 144.417969 85.574219 L 144.417969 92.125 L 152.839844 98.648438 L 144.417969 105.144531 L 144.417969 111.691406 L 161.289062 98.621094 Z M 160.457031 85.574219 L 160.457031 92.125 L 168.878906 98.648438 L 160.457031 105.144531 L 160.457031 111.691406 L 177.328125 98.621094 Z M 160.457031 85.574219 " fill-opacity="1" fill-rule="nonzero"/></g><g clip-path="url(#c446ac007d)"><path fill="#ffffff" d="M 69.292969 111.84375 L 69.292969 105.292969 L 60.871094 98.773438 L 69.292969 92.277344 L 69.292969 85.726562 L 52.421875 98.796875 Z M 53.253906 111.84375 L 53.253906 105.292969 L 44.832031 98.773438 L 53.253906 92.277344 L 53.253906 85.726562 L 36.382812 98.796875 Z M 37.214844 111.84375 L 37.214844 105.292969 L 28.792969 98.773438 L 37.214844 92.277344 L 37.214844 85.726562 L 20.34375 98.796875 Z M 37.214844 111.84375 " fill-opacity="1" fill-rule="nonzero"/></g></svg>