<svg xmlns="http://www.w3.org/2000/svg" xmlns:xlink="http://www.w3.org/1999/xlink" width="264" zoomAndPan="magnify" viewBox="0 0 198 198.749996" height="264" preserveAspectRatio="xMidYMid meet" version="1.0"><defs><g/><clipPath id="fec6c1ca5b"><path d="M 56.589844 56.464844 L 140.914062 56.464844 L 140.914062 197.503906 L 56.589844 197.503906 Z M 56.589844 56.464844 " clip-rule="nonzero"/></clipPath><clipPath id="720ae59a5c"><path d="M 152.414062 19.742188 L 177.785156 19.742188 L 177.785156 45.113281 L 152.414062 45.113281 Z M 152.414062 19.742188 " clip-rule="nonzero"/></clipPath><clipPath id="590211124f"><path d="M 0.125 56.46875 L 141.078125 56.46875 L 141.078125 140.792969 L 0.125 140.792969 Z M 0.125 56.46875 " clip-rule="nonzero"/></clipPath><clipPath id="ceacc367f5"><path d="M 85.703125 128.425781 L 111.820312 128.425781 L 111.820312 177.679688 L 85.703125 177.679688 Z M 85.703125 128.425781 " clip-rule="nonzero"/></clipPath><clipPath id="d8211bac43"><path d="M 20.195312 85.726562 L 69.445312 85.726562 L 69.445312 111.84375 L 20.195312 111.84375 Z M 20.195312 85.726562 " clip-rule="nonzero"/></clipPath></defs><g clip-path="url(#fec6c1ca5b)"><path fill="#000000" d="M 56.589844 56.46875 L 140.914062 56.46875 L 140.914062 197.5 L 56.589844 197.5 L 56.589844 56.46875 " fill-opacity="1" fill-rule="nonzero"/></g><g clip-path="url(#720ae59a5c)"><path fill="#000000" d="M 165.101562 19.742188 C 158.09375 19.742188 152.414062 25.421875 152.414062 32.429688 C 152.414062 39.433594 158.09375 45.113281 165.101562 45.113281 C 172.105469 45.113281 177.785156 39.433594 177.785156 32.429688 C 177.785156 25.421875 172.105469 19.742188 165.101562 19.742188 " fill-opacity="1" fill-rule="nonzero"/></g><g fill="#ffffff" fill-opacity="1"><g transform="translate(159.651786, 39.529885)"><g><path d="M 0.859375 -0.65625 C 0.859375 -1.4375 0.941406 -2.066406 1.109375 -2.546875 C 1.285156 -3.023438 1.578125 -3.46875 1.984375 -3.875 C 2.398438 -4.289062 3.0625 -4.832031 3.96875 -5.5 L 5.53125 -6.640625 C 6.113281 -7.054688 6.582031 -7.441406 6.9375 -7.796875 C 7.300781 -8.148438 7.585938 -8.535156 7.796875 -8.953125 C 8.015625 -9.378906 8.125 -9.847656 8.125 -10.359375 C 8.125 -11.203125 7.898438 -11.835938 7.453125 -12.265625 C 7.003906 -12.691406 6.300781 -12.90625 5.34375 -12.90625 C 4.59375 -12.90625 3.925781 -12.726562 3.34375 -12.375 C 2.769531 -12.03125 2.304688 -11.535156 1.953125 -10.890625 L 1.734375 -10.859375 L 0.734375 -11.90625 C 1.210938 -12.6875 1.835938 -13.296875 2.609375 -13.734375 C 3.390625 -14.179688 4.300781 -14.40625 5.34375 -14.40625 C 6.351562 -14.40625 7.191406 -14.234375 7.859375 -13.890625 C 8.535156 -13.546875 9.03125 -13.070312 9.34375 -12.46875 C 9.65625 -11.863281 9.8125 -11.160156 9.8125 -10.359375 C 9.8125 -9.722656 9.675781 -9.128906 9.40625 -8.578125 C 9.144531 -8.035156 8.769531 -7.519531 8.28125 -7.03125 C 7.800781 -6.539062 7.195312 -6.03125 6.46875 -5.5 L 4.890625 -4.34375 C 4.296875 -3.90625 3.835938 -3.535156 3.515625 -3.234375 C 3.203125 -2.929688 2.972656 -2.632812 2.828125 -2.34375 C 2.679688 -2.050781 2.609375 -1.726562 2.609375 -1.375 L 9.8125 -1.375 L 9.8125 0 L 0.859375 0 Z M 0.859375 -0.65625 "/></g></g></g><g clip-path="url(#590211124f)"><path fill="#000000" d="M 141.074219 56.46875 L 141.074219 140.792969 L 0.046875 140.792969 L 0.046875 56.46875 L 141.074219 56.46875 " fill-opacity="1" fill-rule="nonzero"/></g><g clip-path="url(#ceacc367f5)"><path fill="#ffffff" d="M 85.703125 177.527344 L 92.25 177.527344 L 98.773438 169.105469 L 105.269531 177.527344 L 111.820312 177.527344 L 98.746094 160.65625 Z M 85.703125 161.488281 L 92.25 161.488281 L 98.773438 153.066406 L 105.269531 161.488281 L 111.820312 161.488281 L 98.746094 144.617188 Z M 85.703125 145.449219 L 92.25 145.449219 L 98.773438 137.027344 L 105.269531 145.449219 L 111.820312 145.449219 L 98.746094 128.578125 Z M 85.703125 145.449219 " fill-opacity="1" fill-rule="nonzero"/></g><g clip-path="url(#d8211bac43)"><path fill="#ffffff" d="M 69.292969 111.84375 L 69.292969 105.292969 L 60.871094 98.773438 L 69.292969 92.277344 L 69.292969 85.726562 L 52.421875 98.796875 Z M 53.253906 111.84375 L 53.253906 105.292969 L 44.832031 98.773438 L 53.253906 92.277344 L 53.253906 85.726562 L 36.382812 98.796875 Z M 37.214844 111.84375 L 37.214844 105.292969 L 28.792969 98.773438 L 37.214844 92.277344 L 37.214844 85.726562 L 20.34375 98.796875 Z M 37.214844 111.84375 " fill-opacity="1" fill-rule="nonzero"/></g></svg>