<svg xmlns="http://www.w3.org/2000/svg" xmlns:xlink="http://www.w3.org/1999/xlink" width="264" zoomAndPan="magnify" viewBox="0 0 198 198.749996" height="264" preserveAspectRatio="xMidYMid meet" version="1.0"><defs><g/><clipPath id="61bd808f31"><path d="M 56.589844 56.464844 L 140.914062 56.464844 L 140.914062 197.503906 L 56.589844 197.503906 Z M 56.589844 56.464844 " clip-rule="nonzero"/></clipPath><clipPath id="23e8dcbb3a"><path d="M 152.414062 19.742188 L 177.785156 19.742188 L 177.785156 45.113281 L 152.414062 45.113281 Z M 152.414062 19.742188 " clip-rule="nonzero"/></clipPath><clipPath id="2a6952e085"><path d="M 56.507812 56.46875 L 197.546875 56.46875 L 197.546875 140.792969 L 56.507812 140.792969 Z M 56.507812 56.46875 " clip-rule="nonzero"/></clipPath><clipPath id="6184dfdb37"><path d="M 85.703125 128.425781 L 111.820312 128.425781 L 111.820312 177.679688 L 85.703125 177.679688 Z M 85.703125 128.425781 " clip-rule="nonzero"/></clipPath><clipPath id="49bda8af19"><path d="M 128.226562 85.574219 L 177.476562 85.574219 L 177.476562 111.691406 L 128.226562 111.691406 Z M 128.226562 85.574219 " clip-rule="nonzero"/></clipPath></defs><g clip-path="url(#61bd808f31)"><path fill="#000000" d="M 56.589844 56.46875 L 140.914062 56.46875 L 140.914062 197.5 L 56.589844 197.5 L 56.589844 56.46875 " fill-opacity="1" fill-rule="nonzero"/></g><g clip-path="url(#23e8dcbb3a)"><path fill="#000000" d="M 165.101562 19.742188 C 158.09375 19.742188 152.414062 25.421875 152.414062 32.429688 C 152.414062 39.433594 158.09375 45.113281 165.101562 45.113281 C 172.105469 45.113281 177.785156 39.433594 177.785156 32.429688 C 177.785156 25.421875 172.105469 19.742188 165.101562 19.742188 " fill-opacity="1" fill-rule="nonzero"/></g><g fill="#ffffff" fill-opacity="1"><g transform="translate(159.651786, 39.529856)"><g><path d="M 0.859375 -0.65625 C 0.859375 -1.4375 0.941406 -2.066406 1.109375 -2.546875 C 1.285156 -3.023438 1.578125 -3.46875 1.984375 -3.875 C 2.398438 -4.289062 3.0625 -4.832031 3.96875 -5.5 L 5.53125 -6.640625 C 6.113281 -7.054688 6.582031 -7.441406 6.9375 -7.796875 C 7.300781 -8.148438 7.585938 -8.535156 7.796875 -8.953125 C 8.015625 -9.378906 8.125 -9.847656 8.125 -10.359375 C 8.125 -11.203125 7.898438 -11.835938 7.453125 -12.265625 C 7.003906 -12.691406 6.300781 -12.90625 5.34375 -12.90625 C 4.59375 -12.90625 3.925781 -12.726562 3.34375 -12.375 C 2.769531 -12.03125 2.304688 -11.535156 1.953125 -10.890625 L 1.734375 -10.859375 L 0.734375 -11.90625 C 1.210938 -12.6875 1.835938 -13.296875 2.609375 -13.734375 C 3.390625 -14.179688 4.300781 -14.40625 5.34375 -14.40625 C 6.351562 -14.40625 7.191406 -14.234375 7.859375 -13.890625 C 8.535156 -13.546875 9.03125 -13.070312 9.34375 -12.46875 C 9.65625 -11.863281 9.8125 -11.160156 9.8125 -10.359375 C 9.8125 -9.722656 9.675781 -9.128906 9.40625 -8.578125 C 9.144531 -8.035156 8.769531 -7.519531 8.28125 -7.03125 C 7.800781 -6.539062 7.195312 -6.03125 6.46875 -5.5 L 4.890625 -4.34375 C 4.296875 -3.90625 3.835938 -3.535156 3.515625 -3.234375 C 3.203125 -2.929688 2.972656 -2.632812 2.828125 -2.34375 C 2.679688 -2.050781 2.609375 -1.726562 2.609375 -1.375 L 9.8125 -1.375 L 9.8125 0 L 0.859375 0 Z M 0.859375 -0.65625 "/></g></g></g><g clip-path="url(#2a6952e085)"><path fill="#000000" d="M 197.542969 56.46875 L 197.542969 140.792969 L 56.511719 140.792969 L 56.511719 56.46875 L 197.542969 56.46875 " fill-opacity="1" fill-rule="nonzero"/></g><g clip-path="url(#6184dfdb37)"><path fill="#ffffff" d="M 85.703125 177.527344 L 92.25 177.527344 L 98.773438 169.105469 L 105.269531 177.527344 L 111.820312 177.527344 L 98.746094 160.65625 Z M 85.703125 161.488281 L 92.25 161.488281 L 98.773438 153.066406 L 105.269531 161.488281 L 111.820312 161.488281 L 98.746094 144.617188 Z M 85.703125 145.449219 L 92.25 145.449219 L 98.773438 137.027344 L 105.269531 145.449219 L 111.820312 145.449219 L 98.746094 128.578125 Z M 85.703125 145.449219 " fill-opacity="1" fill-rule="nonzero"/></g><g clip-path="url(#49bda8af19)"><path fill="#ffffff" d="M 128.378906 85.574219 L 128.378906 92.125 L 136.800781 98.648438 L 128.378906 105.144531 L 128.378906 111.691406 L 145.25 98.621094 Z M 144.417969 85.574219 L 144.417969 92.125 L 152.839844 98.648438 L 144.417969 105.144531 L 144.417969 111.691406 L 161.289062 98.621094 Z M 160.457031 85.574219 L 160.457031 92.125 L 168.878906 98.648438 L 160.457031 105.144531 L 160.457031 111.691406 L 177.328125 98.621094 Z M 160.457031 85.574219 " fill-opacity="1" fill-rule="nonzero"/></g></svg>