<svg xmlns="http://www.w3.org/2000/svg" xmlns:xlink="http://www.w3.org/1999/xlink" width="264" zoomAndPan="magnify" viewBox="0 0 198 198.749996" height="264" preserveAspectRatio="xMidYMid meet" version="1.0"><defs><g/><clipPath id="d8b84783ae"><path d="M 56.589844 0 L 140.914062 0 L 140.914062 197.75 L 56.589844 197.75 Z M 56.589844 0 " clip-rule="nonzero"/></clipPath><clipPath id="f2249a00f8"><path d="M 152.414062 19.742188 L 177.785156 19.742188 L 177.785156 45.113281 L 152.414062 45.113281 Z M 152.414062 19.742188 " clip-rule="nonzero"/></clipPath><clipPath id="9e1d94bcab"><path d="M 0.125 56.46875 L 141.078125 56.46875 L 141.078125 140.792969 L 0.125 140.792969 Z M 0.125 56.46875 " clip-rule="nonzero"/></clipPath><clipPath id="7279029f12"><path d="M 85.703125 128.425781 L 111.820312 128.425781 L 111.820312 177.679688 L 85.703125 177.679688 Z M 85.703125 128.425781 " clip-rule="nonzero"/></clipPath><clipPath id="4b6f07ee71"><path d="M 85.703125 20.066406 L 111.820312 20.066406 L 111.820312 69.320312 L 85.703125 69.320312 Z M 85.703125 20.066406 " clip-rule="nonzero"/></clipPath><clipPath id="88e76f6952"><path d="M 20.195312 85.726562 L 69.445312 85.726562 L 69.445312 111.84375 L 20.195312 111.84375 Z M 20.195312 85.726562 " clip-rule="nonzero"/></clipPath></defs><g clip-path="url(#d8b84783ae)"><path fill="#000000" d="M 56.589844 0.0078125 L 140.914062 0.0078125 L 140.914062 197.742188 L 56.589844 197.742188 L 56.589844 0.0078125 " fill-opacity="1" fill-rule="nonzero"/></g><g clip-path="url(#f2249a00f8)"><path fill="#000000" d="M 165.101562 19.742188 C 158.09375 19.742188 152.414062 25.421875 152.414062 32.429688 C 152.414062 39.433594 158.09375 45.113281 165.101562 45.113281 C 172.105469 45.113281 177.785156 39.433594 177.785156 32.429688 C 177.785156 25.421875 172.105469 19.742188 165.101562 19.742188 " fill-opacity="1" fill-rule="nonzero"/></g><g fill="#ffffff" fill-opacity="1"><g transform="translate(159.340854, 39.529914)"><g><path d="M 5.625 0.203125 C 4.238281 0.203125 3.140625 -0.101562 2.328125 -0.71875 C 1.523438 -1.34375 1.003906 -2.207031 0.765625 -3.3125 L 2.015625 -3.875 L 2.234375 -3.84375 C 2.484375 -2.988281 2.863281 -2.347656 3.375 -1.921875 C 3.882812 -1.503906 4.632812 -1.296875 5.625 -1.296875 C 6.625 -1.296875 7.382812 -1.523438 7.90625 -1.984375 C 8.4375 -2.453125 8.703125 -3.128906 8.703125 -4.015625 C 8.703125 -4.890625 8.429688 -5.554688 7.890625 -6.015625 C 7.359375 -6.484375 6.519531 -6.71875 5.375 -6.71875 L 3.84375 -6.71875 L 3.84375 -8.09375 L 5.21875 -8.09375 C 6.113281 -8.09375 6.820312 -8.3125 7.34375 -8.75 C 7.875 -9.195312 8.140625 -9.828125 8.140625 -10.640625 C 8.140625 -11.410156 7.910156 -11.988281 7.453125 -12.375 C 6.992188 -12.757812 6.351562 -12.953125 5.53125 -12.953125 C 4.101562 -12.953125 3.085938 -12.378906 2.484375 -11.234375 L 2.25 -11.203125 L 1.328125 -12.21875 C 1.703125 -12.875 2.25 -13.398438 2.96875 -13.796875 C 3.6875 -14.203125 4.539062 -14.40625 5.53125 -14.40625 C 6.4375 -14.40625 7.207031 -14.265625 7.84375 -13.984375 C 8.488281 -13.703125 8.972656 -13.296875 9.296875 -12.765625 C 9.628906 -12.234375 9.796875 -11.597656 9.796875 -10.859375 C 9.796875 -10.160156 9.59375 -9.546875 9.1875 -9.015625 C 8.78125 -8.484375 8.242188 -8.066406 7.578125 -7.765625 L 7.578125 -7.5625 C 8.523438 -7.332031 9.234375 -6.910156 9.703125 -6.296875 C 10.171875 -5.679688 10.40625 -4.921875 10.40625 -4.015625 C 10.40625 -2.671875 10.003906 -1.628906 9.203125 -0.890625 C 8.398438 -0.160156 7.207031 0.203125 5.625 0.203125 Z M 5.625 0.203125 "/></g></g></g><g clip-path="url(#9e1d94bcab)"><path fill="#000000" d="M 141.074219 56.46875 L 141.074219 140.792969 L 0.046875 140.792969 L 0.046875 56.46875 L 141.074219 56.46875 " fill-opacity="1" fill-rule="nonzero"/></g><g clip-path="url(#7279029f12)"><path fill="#ffffff" d="M 85.703125 177.527344 L 92.25 177.527344 L 98.773438 169.105469 L 105.269531 177.527344 L 111.820312 177.527344 L 98.746094 160.65625 Z M 85.703125 161.488281 L 92.25 161.488281 L 98.773438 153.066406 L 105.269531 161.488281 L 111.820312 161.488281 L 98.746094 144.617188 Z M 85.703125 145.449219 L 92.25 145.449219 L 98.773438 137.027344 L 105.269531 145.449219 L 111.820312 145.449219 L 98.746094 128.578125 Z M 85.703125 145.449219 " fill-opacity="1" fill-rule="nonzero"/></g><g clip-path="url(#4b6f07ee71)"><path fill="#ffffff" d="M 85.703125 69.167969 L 92.25 69.167969 L 98.773438 60.746094 L 105.269531 69.167969 L 111.820312 69.167969 L 98.746094 52.296875 Z M 85.703125 53.128906 L 92.25 53.128906 L 98.773438 44.707031 L 105.269531 53.128906 L 111.820312 53.128906 L 98.746094 36.257812 Z M 85.703125 37.089844 L 92.25 37.089844 L 98.773438 28.667969 L 105.269531 37.089844 L 111.820312 37.089844 L 98.746094 20.21875 Z M 85.703125 37.089844 " fill-opacity="1" fill-rule="nonzero"/></g><g clip-path="url(#88e76f6952)"><path fill="#ffffff" d="M 69.292969 111.84375 L 69.292969 105.292969 L 60.871094 98.773438 L 69.292969 92.277344 L 69.292969 85.726562 L 52.421875 98.796875 Z M 53.253906 111.84375 L 53.253906 105.292969 L 44.832031 98.773438 L 53.253906 92.277344 L 53.253906 85.726562 L 36.382812 98.796875 Z M 37.214844 111.84375 L 37.214844 105.292969 L 28.792969 98.773438 L 37.214844 92.277344 L 37.214844 85.726562 L 20.34375 98.796875 Z M 37.214844 111.84375 " fill-opacity="1" fill-rule="nonzero"/></g></svg>