<svg xmlns="http://www.w3.org/2000/svg" xmlns:xlink="http://www.w3.org/1999/xlink" width="264" zoomAndPan="magnify" viewBox="0 0 198.75 198.749995" height="264" preserveAspectRatio="xMidYMid meet" version="1.0"><defs><g/><clipPath id="6f3ce9abc1"><path d="M 126.082031 72.796875 L 178.582031 72.796875 L 178.582031 125.296875 L 126.082031 125.296875 Z M 126.082031 72.796875 " clip-rule="nonzero"/></clipPath><clipPath id="6f684cb9e7"><path d="M 19.84375 73.125 L 72.34375 73.125 L 72.34375 125.625 L 19.84375 125.625 Z M 19.84375 73.125 " clip-rule="nonzero"/></clipPath><clipPath id="a8fc904edf"><path d="M 73.125 126.082031 L 125.625 126.082031 L 125.625 178.582031 L 73.125 178.582031 Z M 73.125 126.082031 " clip-rule="nonzero"/></clipPath><clipPath id="0a4e328bba"><path d="M 72.671875 19.84375 L 125.171875 19.84375 L 125.171875 72.34375 L 72.671875 72.34375 Z M 72.671875 19.84375 " clip-rule="nonzero"/></clipPath><clipPath id="16d221720e"><path d="M 137 128 L 161 128 L 161 153 L 137 153 Z M 137 128 " clip-rule="nonzero"/></clipPath><clipPath id="af959b2d6b"><path d="M 140.132812 125.753906 L 163.464844 149.085938 L 148.617188 163.9375 L 125.28125 140.601562 Z M 140.132812 125.753906 " clip-rule="nonzero"/></clipPath><clipPath id="b3e78f1011"><path d="M 140.132812 125.753906 L 163.464844 149.085938 L 148.617188 163.9375 L 125.28125 140.601562 Z M 140.132812 125.753906 " clip-rule="nonzero"/></clipPath><clipPath id="806e94e961"><path d="M 140.132812 125.753906 L 163.464844 149.085938 L 148.617188 163.9375 L 125.28125 140.601562 Z M 140.132812 125.753906 " clip-rule="nonzero"/></clipPath><clipPath id="85f3ad0122"><path d="M 46 137 L 70 137 L 70 161 L 46 161 Z M 46 137 " clip-rule="nonzero"/></clipPath><clipPath id="09ac44833c"><path d="M 72.667969 140.378906 L 49.332031 163.710938 L 34.480469 148.863281 L 57.816406 125.527344 Z M 72.667969 140.378906 " clip-rule="nonzero"/></clipPath><clipPath id="972230ec1b"><path d="M 72.667969 140.378906 L 49.332031 163.710938 L 34.480469 148.863281 L 57.816406 125.527344 Z M 72.667969 140.378906 " clip-rule="nonzero"/></clipPath><clipPath id="d7a4cd4f64"><path d="M 72.667969 140.378906 L 49.332031 163.710938 L 34.480469 148.863281 L 57.816406 125.527344 Z M 72.667969 140.378906 " clip-rule="nonzero"/></clipPath><clipPath id="704d753e06"><path d="M 37 38 L 62 38 L 62 63 L 37 63 Z M 37 38 " clip-rule="nonzero"/></clipPath><clipPath id="150d2b81f7"><path d="M 58.039062 65.296875 L 34.707031 41.960938 L 49.554688 27.113281 L 72.890625 50.445312 Z M 58.039062 65.296875 " clip-rule="nonzero"/></clipPath><clipPath id="41048509cd"><path d="M 58.039062 65.296875 L 34.707031 41.960938 L 49.554688 27.113281 L 72.890625 50.445312 Z M 58.039062 65.296875 " clip-rule="nonzero"/></clipPath><clipPath id="e3b522512d"><path d="M 58.039062 65.296875 L 34.707031 41.960938 L 49.554688 27.113281 L 72.890625 50.445312 Z M 58.039062 65.296875 " clip-rule="nonzero"/></clipPath></defs><g clip-path="url(#6f3ce9abc1)"><path fill="#000000" d="M 178.582031 99.046875 C 178.582031 84.550781 166.828125 72.796875 152.332031 72.796875 C 137.832031 72.796875 126.082031 84.550781 126.082031 99.046875 C 126.082031 113.542969 137.832031 125.296875 152.332031 125.296875 C 166.828125 125.296875 178.582031 113.542969 178.582031 99.046875 " fill-opacity="1" fill-rule="nonzero"/></g><g fill="#ffffff" fill-opacity="1"><g transform="translate(137.417829, 84.685052)"><g><path d="M -0.421875 14.53125 C -0.421875 12.363281 0.0976562 10.414062 1.140625 8.6875 C 2.179688 6.96875 3.835938 5.59375 6.109375 4.5625 C 8.378906 3.539062 11.269531 3.03125 14.78125 3.03125 C 18.28125 3.03125 21.164062 3.539062 23.4375 4.5625 C 25.707031 5.59375 27.363281 6.96875 28.40625 8.6875 C 29.445312 10.414062 29.96875 12.363281 29.96875 14.53125 C 29.96875 16.695312 29.445312 18.640625 28.40625 20.359375 C 27.363281 22.085938 25.707031 23.460938 23.4375 24.484375 C 21.164062 25.503906 18.28125 26.015625 14.78125 26.015625 C 11.269531 26.015625 8.378906 25.503906 6.109375 24.484375 C 3.835938 23.460938 2.179688 22.085938 1.140625 20.359375 C 0.0976562 18.640625 -0.421875 16.695312 -0.421875 14.53125 Z M 2.78125 14.53125 C 2.78125 17.101562 3.707031 19.050781 5.5625 20.375 C 7.414062 21.707031 10.488281 22.375 14.78125 22.375 C 19.0625 22.375 22.128906 21.707031 23.984375 20.375 C 25.835938 19.050781 26.765625 17.101562 26.765625 14.53125 C 26.765625 12.832031 26.367188 11.40625 25.578125 10.25 C 24.796875 9.09375 23.523438 8.207031 21.765625 7.59375 C 20.003906 6.976562 17.675781 6.671875 14.78125 6.671875 C 11.875 6.671875 9.539062 6.976562 7.78125 7.59375 C 6.019531 8.207031 4.742188 9.09375 3.953125 10.25 C 3.171875 11.40625 2.78125 12.832031 2.78125 14.53125 Z M 2.78125 14.53125 "/></g></g></g><g clip-path="url(#6f684cb9e7)"><path fill="#000000" d="M 19.84375 99.375 C 19.84375 113.871094 31.59375 125.625 46.09375 125.625 C 60.589844 125.625 72.34375 113.871094 72.34375 99.375 C 72.34375 84.878906 60.589844 73.125 46.09375 73.125 C 31.59375 73.125 19.84375 84.878906 19.84375 99.375 " fill-opacity="1" fill-rule="nonzero"/></g><g fill="#ffffff" fill-opacity="1"><g transform="translate(61.005152, 110.584694)"><g><path d="M -1.359375 -1.78125 C -2.984375 -1.78125 -4.296875 -1.957031 -5.296875 -2.3125 C -6.296875 -2.664062 -7.222656 -3.273438 -8.078125 -4.140625 C -8.941406 -5.003906 -10.0625 -6.378906 -11.4375 -8.265625 L -13.796875 -11.515625 C -14.679688 -12.710938 -15.492188 -13.6875 -16.234375 -14.4375 C -16.972656 -15.195312 -17.773438 -15.796875 -18.640625 -16.234375 C -19.515625 -16.671875 -20.488281 -16.890625 -21.5625 -16.890625 C -23.3125 -16.890625 -24.628906 -16.425781 -25.515625 -15.5 C -26.410156 -14.570312 -26.859375 -13.117188 -26.859375 -11.140625 C -26.859375 -9.578125 -26.492188 -8.1875 -25.765625 -6.96875 C -25.035156 -5.757812 -24.003906 -4.789062 -22.671875 -4.0625 L -22.59375 -3.59375 L -24.78125 -1.515625 C -26.394531 -2.515625 -27.660156 -3.820312 -28.578125 -5.4375 C -29.503906 -7.0625 -29.96875 -8.960938 -29.96875 -11.140625 C -29.96875 -13.234375 -29.609375 -14.972656 -28.890625 -16.359375 C -28.179688 -17.753906 -27.195312 -18.78125 -25.9375 -19.4375 C -24.675781 -20.101562 -23.21875 -20.4375 -21.5625 -20.4375 C -20.238281 -20.4375 -19.003906 -20.160156 -17.859375 -19.609375 C -16.710938 -19.054688 -15.632812 -18.273438 -14.625 -17.265625 C -13.613281 -16.253906 -12.550781 -14.984375 -11.4375 -13.453125 L -9.03125 -10.171875 C -8.132812 -8.941406 -7.367188 -7.992188 -6.734375 -7.328125 C -6.097656 -6.671875 -5.476562 -6.191406 -4.875 -5.890625 C -4.28125 -5.585938 -3.613281 -5.4375 -2.875 -5.4375 L -2.875 -20.4375 L 0 -20.4375 L 0 -1.78125 Z M -1.359375 -1.78125 "/></g></g></g><g clip-path="url(#a8fc904edf)"><path fill="#000000" d="M 99.375 178.582031 C 113.871094 178.582031 125.625 166.828125 125.625 152.332031 C 125.625 137.832031 113.871094 126.082031 99.375 126.082031 C 84.878906 126.082031 73.125 137.832031 73.125 152.332031 C 73.125 166.828125 84.878906 178.582031 99.375 178.582031 " fill-opacity="1" fill-rule="nonzero"/></g><g fill="#ffffff" fill-opacity="1"><g transform="translate(110.220861, 137.417827)"><g><path d="M -2.109375 0 L -2.109375 2.875 L -10.171875 2.875 L -10.171875 25.46875 L -9.703125 25.59375 C -8.390625 24.9375 -7.242188 24.4375 -6.265625 24.09375 C -5.285156 23.75 -4.023438 23.414062 -2.484375 23.09375 L -2.484375 26.296875 C -4.003906 26.617188 -5.507812 27.054688 -7 27.609375 C -8.488281 28.160156 -9.84375 28.804688 -11.0625 29.546875 L -13.5625 29.546875 L -13.5625 2.875 L -20.78125 2.875 L -20.78125 0 Z M -2.109375 0 "/></g></g></g><g clip-path="url(#0a4e328bba)"><path fill="#000000" d="M 98.921875 19.84375 C 84.425781 19.84375 72.671875 31.59375 72.671875 46.09375 C 72.671875 60.589844 84.425781 72.34375 98.921875 72.34375 C 113.421875 72.34375 125.171875 60.589844 125.171875 46.09375 C 125.171875 31.59375 113.421875 19.84375 98.921875 19.84375 " fill-opacity="1" fill-rule="nonzero"/></g><g fill="#ffffff" fill-opacity="1"><g transform="translate(87.083051, 61.00515)"><g><path d="M 11.703125 0.421875 C 8.828125 0.421875 6.546875 -0.222656 4.859375 -1.515625 C 3.179688 -2.804688 2.09375 -4.597656 1.59375 -6.890625 L 4.1875 -8.0625 L 4.640625 -7.984375 C 5.160156 -6.210938 5.953125 -4.890625 7.015625 -4.015625 C 8.085938 -3.140625 9.648438 -2.703125 11.703125 -2.703125 C 13.785156 -2.703125 15.375 -3.179688 16.46875 -4.140625 C 17.5625 -5.097656 18.109375 -6.503906 18.109375 -8.359375 C 18.109375 -10.179688 17.550781 -11.570312 16.4375 -12.53125 C 15.332031 -13.488281 13.585938 -13.96875 11.203125 -13.96875 L 7.984375 -13.96875 L 7.984375 -16.828125 L 10.859375 -16.828125 C 12.710938 -16.828125 14.1875 -17.289062 15.28125 -18.21875 C 16.382812 -19.144531 16.9375 -20.445312 16.9375 -22.125 C 16.9375 -23.726562 16.460938 -24.929688 15.515625 -25.734375 C 14.566406 -26.535156 13.234375 -26.9375 11.515625 -26.9375 C 8.535156 -26.9375 6.414062 -25.753906 5.15625 -23.390625 L 4.6875 -23.296875 L 2.75 -25.421875 C 3.539062 -26.785156 4.679688 -27.882812 6.171875 -28.71875 C 7.671875 -29.550781 9.453125 -29.96875 11.515625 -29.96875 C 13.398438 -29.96875 15.003906 -29.675781 16.328125 -29.09375 C 17.660156 -28.507812 18.671875 -27.664062 19.359375 -26.5625 C 20.046875 -25.457031 20.390625 -24.132812 20.390625 -22.59375 C 20.390625 -21.132812 19.96875 -19.859375 19.125 -18.765625 C 18.28125 -17.671875 17.164062 -16.804688 15.78125 -16.171875 L 15.78125 -15.75 C 17.738281 -15.269531 19.207031 -14.382812 20.1875 -13.09375 C 21.175781 -11.8125 21.671875 -10.234375 21.671875 -8.359375 C 21.671875 -5.554688 20.832031 -3.390625 19.15625 -1.859375 C 17.488281 -0.335938 15.003906 0.421875 11.703125 0.421875 Z M 11.703125 0.421875 "/></g></g></g><g clip-path="url(#16d221720e)"><g clip-path="url(#af959b2d6b)"><g clip-path="url(#b3e78f1011)"><g clip-path="url(#806e94e961)"><path fill="#000000" d="M 160.664062 146.386719 L 142.648438 146.570312 L 142.832031 128.554688 L 137.273438 128.613281 L 137.03125 152.1875 L 160.605469 151.945312 Z M 160.664062 146.386719 " fill-opacity="1" fill-rule="nonzero"/></g></g></g></g><g clip-path="url(#85f3ad0122)"><g clip-path="url(#09ac44833c)"><g clip-path="url(#972230ec1b)"><g clip-path="url(#d7a4cd4f64)"><path fill="#000000" d="M 52.03125 160.910156 L 51.847656 142.894531 L 69.863281 143.078125 L 69.804688 137.519531 L 46.230469 137.277344 L 46.472656 160.851562 Z M 52.03125 160.910156 " fill-opacity="1" fill-rule="nonzero"/></g></g></g></g><g clip-path="url(#704d753e06)"><g clip-path="url(#150d2b81f7)"><g clip-path="url(#41048509cd)"><g clip-path="url(#e3b522512d)"><path fill="#000000" d="M 37.507812 44.660156 L 55.523438 44.476562 L 55.339844 62.492188 L 60.898438 62.4375 L 61.140625 38.859375 L 37.566406 39.101562 Z M 37.507812 44.660156 " fill-opacity="1" fill-rule="nonzero"/></g></g></g></g></svg>