<svg xmlns="http://www.w3.org/2000/svg" xmlns:xlink="http://www.w3.org/1999/xlink" width="264" zoomAndPan="magnify" viewBox="0 0 198 198.749996" height="264" preserveAspectRatio="xMidYMid meet" version="1.0"><defs><clipPath id="eab9267f1c"><path d="M 56.589844 0 L 140.914062 0 L 140.914062 98.503906 L 56.589844 98.503906 Z M 56.589844 0 " clip-rule="nonzero"/></clipPath><clipPath id="f89b1a703c"><path d="M 85.703125 20.066406 L 111.820312 20.066406 L 111.820312 69.320312 L 85.703125 69.320312 Z M 85.703125 20.066406 " clip-rule="nonzero"/></clipPath><clipPath id="b1b8077d1a"><path d="M 46.316406 69.324219 L 151.535156 69.324219 L 151.535156 174.542969 L 46.316406 174.542969 Z M 46.316406 69.324219 " clip-rule="nonzero"/></clipPath></defs><g clip-path="url(#eab9267f1c)"><path fill="#000000" d="M 56.589844 0.00390625 L 140.914062 0.00390625 L 140.914062 98.5 L 56.589844 98.5 L 56.589844 0.00390625 " fill-opacity="1" fill-rule="nonzero"/></g><g clip-path="url(#f89b1a703c)"><path fill="#ffffff" d="M 85.703125 69.167969 L 92.25 69.167969 L 98.773438 60.746094 L 105.269531 69.167969 L 111.820312 69.167969 L 98.746094 52.296875 Z M 85.703125 53.128906 L 92.25 53.128906 L 98.773438 44.707031 L 105.269531 53.128906 L 111.820312 53.128906 L 98.746094 36.257812 Z M 85.703125 37.089844 L 92.25 37.089844 L 98.773438 28.667969 L 105.269531 37.089844 L 111.820312 37.089844 L 98.746094 20.21875 Z M 85.703125 37.089844 " fill-opacity="1" fill-rule="nonzero"/></g><g clip-path="url(#b1b8077d1a)"><path fill="#000000" d="M 98.925781 69.324219 C 69.867188 69.324219 46.316406 92.878906 46.316406 121.933594 C 46.316406 150.988281 69.867188 174.542969 98.925781 174.542969 C 127.980469 174.542969 151.535156 150.988281 151.535156 121.933594 C 151.535156 92.878906 127.980469 69.324219 98.925781 69.324219 " fill-opacity="1" fill-rule="nonzero"/></g></svg>