<svg xmlns="http://www.w3.org/2000/svg" xmlns:xlink="http://www.w3.org/1999/xlink" width="264" zoomAndPan="magnify" viewBox="0 0 198 198.749996" height="264" preserveAspectRatio="xMidYMid meet" version="1.0"><defs><g/><clipPath id="9c79cf26e8"><path d="M 56.589844 0 L 140.914062 0 L 140.914062 197.75 L 56.589844 197.75 Z M 56.589844 0 " clip-rule="nonzero"/></clipPath><clipPath id="836c574ed7"><path d="M 152.414062 19.742188 L 177.785156 19.742188 L 177.785156 45.113281 L 152.414062 45.113281 Z M 152.414062 19.742188 " clip-rule="nonzero"/></clipPath><clipPath id="7af97cd59d"><path d="M 85.703125 128.425781 L 111.820312 128.425781 L 111.820312 177.679688 L 85.703125 177.679688 Z M 85.703125 128.425781 " clip-rule="nonzero"/></clipPath><clipPath id="c120ccfcb8"><path d="M 85.703125 20.066406 L 111.820312 20.066406 L 111.820312 69.320312 L 85.703125 69.320312 Z M 85.703125 20.066406 " clip-rule="nonzero"/></clipPath></defs><g clip-path="url(#9c79cf26e8)"><path fill="#000000" d="M 56.589844 0.0078125 L 140.914062 0.0078125 L 140.914062 197.742188 L 56.589844 197.742188 L 56.589844 0.0078125 " fill-opacity="1" fill-rule="nonzero"/></g><g clip-path="url(#836c574ed7)"><path fill="#000000" d="M 165.101562 19.742188 C 158.09375 19.742188 152.414062 25.421875 152.414062 32.429688 C 152.414062 39.433594 158.09375 45.113281 165.101562 45.113281 C 172.105469 45.113281 177.785156 39.433594 177.785156 32.429688 C 177.785156 25.421875 172.105469 19.742188 165.101562 19.742188 " fill-opacity="1" fill-rule="nonzero"/></g><g clip-path="url(#7af97cd59d)"><path fill="#ffffff" d="M 85.703125 177.527344 L 92.25 177.527344 L 98.773438 169.105469 L 105.269531 177.527344 L 111.820312 177.527344 L 98.746094 160.65625 Z M 85.703125 161.488281 L 92.25 161.488281 L 98.773438 153.066406 L 105.269531 161.488281 L 111.820312 161.488281 L 98.746094 144.617188 Z M 85.703125 145.449219 L 92.25 145.449219 L 98.773438 137.027344 L 105.269531 145.449219 L 111.820312 145.449219 L 98.746094 128.578125 Z M 85.703125 145.449219 " fill-opacity="1" fill-rule="nonzero"/></g><g clip-path="url(#c120ccfcb8)"><path fill="#ffffff" d="M 85.703125 69.167969 L 92.25 69.167969 L 98.773438 60.746094 L 105.269531 69.167969 L 111.820312 69.167969 L 98.746094 52.296875 Z M 85.703125 53.128906 L 92.25 53.128906 L 98.773438 44.707031 L 105.269531 53.128906 L 111.820312 53.128906 L 98.746094 36.257812 Z M 85.703125 37.089844 L 92.25 37.089844 L 98.773438 28.667969 L 105.269531 37.089844 L 111.820312 37.089844 L 98.746094 20.21875 Z M 85.703125 37.089844 " fill-opacity="1" fill-rule="nonzero"/></g><g fill="#ffffff" fill-opacity="1"><g transform="translate(159.813477, 39.529929)"><g><path d="M 1.015625 0 L 1.015625 -1.375 L 4.890625 -1.375 L 4.890625 -12.234375 L 4.65625 -12.296875 C 4.03125 -11.984375 3.476562 -11.742188 3 -11.578125 C 2.53125 -11.410156 1.925781 -11.25 1.1875 -11.09375 L 1.1875 -12.640625 C 1.925781 -12.796875 2.648438 -13.003906 3.359375 -13.265625 C 4.078125 -13.535156 4.726562 -13.847656 5.3125 -14.203125 L 6.515625 -14.203125 L 6.515625 -1.375 L 9.984375 -1.375 L 9.984375 0 Z M 1.015625 0 "/></g></g></g></svg>