<svg xmlns="http://www.w3.org/2000/svg" xmlns:xlink="http://www.w3.org/1999/xlink" width="264" zoomAndPan="magnify" viewBox="0 0 198 198.749996" height="264" preserveAspectRatio="xMidYMid meet" version="1.0"><defs><g/><clipPath id="7a172cd020"><path d="M 56.589844 56.464844 L 140.914062 56.464844 L 140.914062 197.503906 L 56.589844 197.503906 Z M 56.589844 56.464844 " clip-rule="nonzero"/></clipPath><clipPath id="18bf31b10b"><path d="M 152.414062 19.742188 L 177.785156 19.742188 L 177.785156 45.113281 L 152.414062 45.113281 Z M 152.414062 19.742188 " clip-rule="nonzero"/></clipPath><clipPath id="46c54143ba"><path d="M 0.125 56.46875 L 197.546875 56.46875 L 197.546875 140.792969 L 0.125 140.792969 Z M 0.125 56.46875 " clip-rule="nonzero"/></clipPath><clipPath id="978239f9d0"><path d="M 85.703125 128.425781 L 111.820312 128.425781 L 111.820312 177.679688 L 85.703125 177.679688 Z M 85.703125 128.425781 " clip-rule="nonzero"/></clipPath><clipPath id="c617e2a957"><path d="M 128.226562 85.574219 L 177.476562 85.574219 L 177.476562 111.691406 L 128.226562 111.691406 Z M 128.226562 85.574219 " clip-rule="nonzero"/></clipPath><clipPath id="420ecf40d7"><path d="M 20.195312 85.726562 L 69.445312 85.726562 L 69.445312 111.84375 L 20.195312 111.84375 Z M 20.195312 85.726562 " clip-rule="nonzero"/></clipPath></defs><g clip-path="url(#7a172cd020)"><path fill="#000000" d="M 56.589844 56.46875 L 140.914062 56.46875 L 140.914062 197.5 L 56.589844 197.5 L 56.589844 56.46875 " fill-opacity="1" fill-rule="nonzero"/></g><g clip-path="url(#18bf31b10b)"><path fill="#000000" d="M 165.101562 19.742188 C 158.09375 19.742188 152.414062 25.421875 152.414062 32.429688 C 152.414062 39.433594 158.09375 45.113281 165.101562 45.113281 C 172.105469 45.113281 177.785156 39.433594 177.785156 32.429688 C 177.785156 25.421875 172.105469 19.742188 165.101562 19.742188 " fill-opacity="1" fill-rule="nonzero"/></g><g fill="#ffffff" fill-opacity="1"><g transform="translate(159.092114, 39.529929)"><g><path d="M 8.890625 0 L 7.296875 0 L 7.296875 -3.390625 L 0.65625 -3.390625 L 0.65625 -4.734375 L 6.921875 -14.203125 L 8.890625 -14.203125 L 8.890625 -4.734375 L 11.34375 -4.734375 L 11.34375 -3.390625 L 8.890625 -3.390625 Z M 2.609375 -4.9375 L 2.703125 -4.734375 L 7.296875 -4.734375 L 7.296875 -11.890625 L 7.078125 -11.921875 Z M 2.609375 -4.9375 "/></g></g></g><g clip-path="url(#46c54143ba)"><path fill="#000000" d="M 197.539062 56.46875 L 197.539062 140.792969 L -0.195312 140.792969 L -0.195312 56.46875 L 197.539062 56.46875 " fill-opacity="1" fill-rule="nonzero"/></g><g clip-path="url(#978239f9d0)"><path fill="#ffffff" d="M 85.703125 177.527344 L 92.25 177.527344 L 98.773438 169.105469 L 105.269531 177.527344 L 111.820312 177.527344 L 98.746094 160.65625 Z M 85.703125 161.488281 L 92.25 161.488281 L 98.773438 153.066406 L 105.269531 161.488281 L 111.820312 161.488281 L 98.746094 144.617188 Z M 85.703125 145.449219 L 92.25 145.449219 L 98.773438 137.027344 L 105.269531 145.449219 L 111.820312 145.449219 L 98.746094 128.578125 Z M 85.703125 145.449219 " fill-opacity="1" fill-rule="nonzero"/></g><g clip-path="url(#c617e2a957)"><path fill="#ffffff" d="M 128.378906 85.574219 L 128.378906 92.125 L 136.800781 98.648438 L 128.378906 105.144531 L 128.378906 111.691406 L 145.25 98.621094 Z M 144.417969 85.574219 L 144.417969 92.125 L 152.839844 98.648438 L 144.417969 105.144531 L 144.417969 111.691406 L 161.289062 98.621094 Z M 160.457031 85.574219 L 160.457031 92.125 L 168.878906 98.648438 L 160.457031 105.144531 L 160.457031 111.691406 L 177.328125 98.621094 Z M 160.457031 85.574219 " fill-opacity="1" fill-rule="nonzero"/></g><g clip-path="url(#420ecf40d7)"><path fill="#ffffff" d="M 69.292969 111.84375 L 69.292969 105.292969 L 60.871094 98.773438 L 69.292969 92.277344 L 69.292969 85.726562 L 52.421875 98.796875 Z M 53.253906 111.84375 L 53.253906 105.292969 L 44.832031 98.773438 L 53.253906 92.277344 L 53.253906 85.726562 L 36.382812 98.796875 Z M 37.214844 111.84375 L 37.214844 105.292969 L 28.792969 98.773438 L 37.214844 92.277344 L 37.214844 85.726562 L 20.34375 98.796875 Z M 37.214844 111.84375 " fill-opacity="1" fill-rule="nonzero"/></g></svg>