<svg xmlns="http://www.w3.org/2000/svg" xmlns:xlink="http://www.w3.org/1999/xlink" width="264" zoomAndPan="magnify" viewBox="0 0 198 198.749996" height="264" preserveAspectRatio="xMidYMid meet" version="1.0"><defs><g/><clipPath id="d6430e007a"><path d="M 56.589844 0 L 140.914062 0 L 140.914062 197.75 L 56.589844 197.75 Z M 56.589844 0 " clip-rule="nonzero"/></clipPath><clipPath id="e0559699de"><path d="M 152.414062 19.742188 L 177.785156 19.742188 L 177.785156 45.113281 L 152.414062 45.113281 Z M 152.414062 19.742188 " clip-rule="nonzero"/></clipPath><clipPath id="c3dd1befe3"><path d="M 0.125 56.46875 L 197.546875 56.46875 L 197.546875 140.792969 L 0.125 140.792969 Z M 0.125 56.46875 " clip-rule="nonzero"/></clipPath><clipPath id="676cd9ec22"><path d="M 85.703125 128.425781 L 111.820312 128.425781 L 111.820312 177.679688 L 85.703125 177.679688 Z M 85.703125 128.425781 " clip-rule="nonzero"/></clipPath><clipPath id="73aab9d24c"><path d="M 85.703125 20.066406 L 111.820312 20.066406 L 111.820312 69.320312 L 85.703125 69.320312 Z M 85.703125 20.066406 " clip-rule="nonzero"/></clipPath><clipPath id="a22575044c"><path d="M 128.226562 85.574219 L 177.476562 85.574219 L 177.476562 111.691406 L 128.226562 111.691406 Z M 128.226562 85.574219 " clip-rule="nonzero"/></clipPath><clipPath id="32c4492382"><path d="M 20.195312 85.726562 L 69.445312 85.726562 L 69.445312 111.84375 L 20.195312 111.84375 Z M 20.195312 85.726562 " clip-rule="nonzero"/></clipPath></defs><g clip-path="url(#d6430e007a)"><path fill="#000000" d="M 56.589844 0.0078125 L 140.914062 0.0078125 L 140.914062 197.742188 L 56.589844 197.742188 L 56.589844 0.0078125 " fill-opacity="1" fill-rule="nonzero"/></g><g clip-path="url(#e0559699de)"><path fill="#000000" d="M 165.101562 19.742188 C 158.09375 19.742188 152.414062 25.421875 152.414062 32.429688 C 152.414062 39.433594 158.09375 45.113281 165.101562 45.113281 C 172.105469 45.113281 177.785156 39.433594 177.785156 32.429688 C 177.785156 25.421875 172.105469 19.742188 165.101562 19.742188 " fill-opacity="1" fill-rule="nonzero"/></g><g fill="#ffffff" fill-opacity="1"><g transform="translate(159.235137, 39.529885)"><g><path d="M 5.84375 0.203125 C 4.519531 0.203125 3.457031 -0.0859375 2.65625 -0.671875 C 1.863281 -1.265625 1.347656 -2.101562 1.109375 -3.1875 L 2.34375 -3.75 L 2.578125 -3.703125 C 2.734375 -3.160156 2.941406 -2.710938 3.203125 -2.359375 C 3.472656 -2.003906 3.820312 -1.738281 4.25 -1.5625 C 4.675781 -1.382812 5.207031 -1.296875 5.84375 -1.296875 C 6.800781 -1.296875 7.546875 -1.582031 8.078125 -2.15625 C 8.617188 -2.726562 8.890625 -3.5625 8.890625 -4.65625 C 8.890625 -5.769531 8.625 -6.617188 8.09375 -7.203125 C 7.570312 -7.785156 6.847656 -8.078125 5.921875 -8.078125 C 5.210938 -8.078125 4.640625 -7.929688 4.203125 -7.640625 C 3.765625 -7.359375 3.378906 -6.921875 3.046875 -6.328125 L 1.703125 -6.453125 L 1.96875 -14.203125 L 9.921875 -14.203125 L 9.921875 -12.78125 L 3.421875 -12.78125 L 3.265625 -8.078125 L 3.46875 -8.03125 C 3.800781 -8.519531 4.207031 -8.882812 4.6875 -9.125 C 5.175781 -9.375 5.753906 -9.5 6.421875 -9.5 C 7.273438 -9.5 8.015625 -9.304688 8.640625 -8.921875 C 9.273438 -8.546875 9.765625 -7.992188 10.109375 -7.265625 C 10.460938 -6.546875 10.640625 -5.675781 10.640625 -4.65625 C 10.640625 -3.644531 10.4375 -2.773438 10.03125 -2.046875 C 9.632812 -1.316406 9.078125 -0.757812 8.359375 -0.375 C 7.640625 0.0078125 6.800781 0.203125 5.84375 0.203125 Z M 5.84375 0.203125 "/></g></g></g><g clip-path="url(#c3dd1befe3)"><path fill="#000000" d="M 197.539062 56.46875 L 197.539062 140.792969 L -0.195312 140.792969 L -0.195312 56.46875 L 197.539062 56.46875 " fill-opacity="1" fill-rule="nonzero"/></g><g clip-path="url(#676cd9ec22)"><path fill="#ffffff" d="M 85.703125 177.527344 L 92.25 177.527344 L 98.773438 169.105469 L 105.269531 177.527344 L 111.820312 177.527344 L 98.746094 160.65625 Z M 85.703125 161.488281 L 92.25 161.488281 L 98.773438 153.066406 L 105.269531 161.488281 L 111.820312 161.488281 L 98.746094 144.617188 Z M 85.703125 145.449219 L 92.25 145.449219 L 98.773438 137.027344 L 105.269531 145.449219 L 111.820312 145.449219 L 98.746094 128.578125 Z M 85.703125 145.449219 " fill-opacity="1" fill-rule="nonzero"/></g><g clip-path="url(#73aab9d24c)"><path fill="#ffffff" d="M 85.703125 69.167969 L 92.25 69.167969 L 98.773438 60.746094 L 105.269531 69.167969 L 111.820312 69.167969 L 98.746094 52.296875 Z M 85.703125 53.128906 L 92.25 53.128906 L 98.773438 44.707031 L 105.269531 53.128906 L 111.820312 53.128906 L 98.746094 36.257812 Z M 85.703125 37.089844 L 92.25 37.089844 L 98.773438 28.667969 L 105.269531 37.089844 L 111.820312 37.089844 L 98.746094 20.21875 Z M 85.703125 37.089844 " fill-opacity="1" fill-rule="nonzero"/></g><g clip-path="url(#a22575044c)"><path fill="#ffffff" d="M 128.378906 85.574219 L 128.378906 92.125 L 136.800781 98.648438 L 128.378906 105.144531 L 128.378906 111.691406 L 145.25 98.621094 Z M 144.417969 85.574219 L 144.417969 92.125 L 152.839844 98.648438 L 144.417969 105.144531 L 144.417969 111.691406 L 161.289062 98.621094 Z M 160.457031 85.574219 L 160.457031 92.125 L 168.878906 98.648438 L 160.457031 105.144531 L 160.457031 111.691406 L 177.328125 98.621094 Z M 160.457031 85.574219 " fill-opacity="1" fill-rule="nonzero"/></g><g clip-path="url(#32c4492382)"><path fill="#ffffff" d="M 69.292969 111.84375 L 69.292969 105.292969 L 60.871094 98.773438 L 69.292969 92.277344 L 69.292969 85.726562 L 52.421875 98.796875 Z M 53.253906 111.84375 L 53.253906 105.292969 L 44.832031 98.773438 L 53.253906 92.277344 L 53.253906 85.726562 L 36.382812 98.796875 Z M 37.214844 111.84375 L 37.214844 105.292969 L 28.792969 98.773438 L 37.214844 92.277344 L 37.214844 85.726562 L 20.34375 98.796875 Z M 37.214844 111.84375 " fill-opacity="1" fill-rule="nonzero"/></g></svg>